<?xml version="1.0" encoding="UTF-8" standalone="no"?>
<!-- Created with Inkscape (http://www.inkscape.org/) -->
<svg
   xmlns:dc="http://purl.org/dc/elements/1.1/"
   xmlns:cc="http://creativecommons.org/ns#"
   xmlns:rdf="http://www.w3.org/1999/02/22-rdf-syntax-ns#"
   xmlns:svg="http://www.w3.org/2000/svg"
   xmlns="http://www.w3.org/2000/svg"
   xmlns:sodipodi="http://sodipodi.sourceforge.net/DTD/sodipodi-0.dtd"
   xmlns:inkscape="http://www.inkscape.org/namespaces/inkscape"
   width="280"
   height="350"
   id="svg3482"
   sodipodi:version="0.32"
   inkscape:version="0.46"
   version="1.0"
   sodipodi:docname="welt.svg"
   inkscape:output_extension="org.inkscape.output.svg.inkscape">
  <defs
     id="defs3484">
    <marker
       inkscape:stockid="Arrow1Sstart"
       orient="auto"
       refY="0"
       refX="0"
       id="Arrow1Sstart"
       style="overflow:visible">
      <path
         id="path3245"
         d="M 0,0 L 5,-5 L -12.5,0 L 5,5 L 0,0 z"
         style="fill-rule:evenodd;stroke:#000000;stroke-width:1pt;marker-start:none"
         transform="matrix(0.2,0,0,0.2,1.2,0)" />
    </marker>
    <marker
       inkscape:stockid="Arrow2Mstart"
       orient="auto"
       refY="0"
       refX="0"
       id="Arrow2Mstart"
       style="overflow:visible">
      <path
         id="path3257"
         style="font-size:12px;fill-rule:evenodd;stroke-width:0.625;stroke-linejoin:round"
         d="M 8.7185878,4.0337352 L -2.2072895,0.016013256 L 8.7185884,-4.0017078 C 6.97309,-1.6296469 6.9831476,1.6157441 8.7185878,4.0337352 z"
         transform="scale(0.6,0.6)" />
    </marker>
    <inkscape:perspective
       sodipodi:type="inkscape:persp3d"
       inkscape:vp_x="0 : 526.18109 : 1"
       inkscape:vp_y="0 : 1000 : 0"
       inkscape:vp_z="744.09448 : 526.18109 : 1"
       inkscape:persp3d-origin="372.04724 : 350.78739 : 1"
       id="perspective3490" />
  </defs>
  <sodipodi:namedview
     id="base"
     pagecolor="#ffffff"
     bordercolor="#666666"
     borderopacity="1.0"
     inkscape:pageopacity="0.0"
     inkscape:pageshadow="2"
     inkscape:zoom="0.98994949"
     inkscape:cx="125.66682"
     inkscape:cy="158.9552"
     inkscape:document-units="px"
     inkscape:current-layer="layer1"
     showgrid="false"
     inkscape:window-width="1280"
     inkscape:window-height="727"
     inkscape:window-x="0"
     inkscape:window-y="24" />
  <metadata
     id="metadata3487">
    <rdf:RDF>
      <cc:Work
         rdf:about="">
        <dc:format>image/svg+xml</dc:format>
        <dc:type
           rdf:resource="http://purl.org/dc/dcmitype/StillImage" />
      </cc:Work>
    </rdf:RDF>
  </metadata>
  <g
     inkscape:label="Ebene 1"
     inkscape:groupmode="layer"
     id="layer1"
     transform="translate(-289.24302,-138.6444)">
    <path
       sodipodi:type="arc"
       style="opacity:1;fill:#afc6e9;fill-opacity:1;fill-rule:nonzero;stroke:none;stroke-width:0.70575404;stroke-linecap:round;stroke-linejoin:round;stroke-miterlimit:4;stroke-dasharray:none;stroke-dashoffset:0;stroke-opacity:1"
       id="path3199"
       sodipodi:cx="238.90108"
       sodipodi:cy="225.55232"
       sodipodi:rx="59.093925"
       sodipodi:ry="50.002552"
       d="M 297.995,225.55232 A 59.093925,50.002552 0 1 1 179.80715,225.55232 A 59.093925,50.002552 0 1 1 297.995,225.55232 z"
       transform="matrix(1.9301759,0.1966822,-0.2360265,2.3162885,16.25828,-223.06381)" />
    <path
       style="opacity:1;fill:#93aca7;fill-rule:evenodd;stroke:none;stroke-width:1px;stroke-linecap:butt;stroke-linejoin:miter;stroke-opacity:1"
       d="M 366.05587,323.28106 C 367.82573,322.82219 371.7702,320.84233 374.13709,320.2506 C 377.31683,319.45567 377.57861,321.48979 380.70308,322.27091 C 384.19954,323.14502 383.95116,322.89779 385.75384,325.30137 C 387.08249,327.0729 390.3392,325.3212 392.31983,326.31152 C 394.51152,327.40736 398.35432,328.33183 401.41121,328.33183 C 406.94579,328.33183 408.44763,329.2034 409.49243,333.38259 C 409.8829,334.94448 413.78023,336.15516 415.04827,337.4232 C 417.16341,339.53834 420.89323,338.72248 422.62441,340.45366 C 424.80053,342.62978 427.06007,343.33741 428.68533,345.50442 C 430.44769,347.85424 431.21071,348.84925 431.21071,352.07041 C 431.21071,356.45954 435.57086,355.8121 438.78685,356.6161 C 441.0276,357.17628 442.18799,358.06413 444.34269,359.14148 C 447.98901,360.96464 453.69189,360.72116 457.47467,361.66686 C 460.988,362.54519 462.25235,362.40393 464.04066,364.19224 C 465.75412,365.90569 466.35719,366.0378 465.55589,369.243 C 464.99836,371.47312 467.76488,372.90625 466.56605,375.30392 C 465.6675,377.10102 462.51441,378.34907 461.01021,380.35468 C 459.34198,382.57898 457.96973,384.4028 455.95944,385.91052 C 453.8904,387.4623 453.94834,388.95938 454.94929,390.96128 C 456.43953,393.94177 457.617,394.93765 456.9696,397.52727 C 456.48531,399.46442 453.02646,400.16784 452.42391,402.57804 C 451.61608,405.80937 452.3542,406.88861 449.39345,407.6288 C 447.05955,408.21228 444.14965,407.67706 442.32238,408.13388 C 438.99334,408.96614 439.08255,409.75379 436.26147,411.16433 C 433.65601,412.46706 432.09836,413.93472 431.21071,415.71002 C 429.92372,418.284 430.27649,419.16962 428.68533,420.76078 C 426.60216,422.84395 426.50329,423.61957 424.13964,424.80139 C 422.29216,425.72513 421.42479,428.02132 420.09903,429.34708 C 418.29753,431.14858 416.29392,430.86231 413.53304,430.86231 C 409.80828,430.86231 409.78679,432.03978 410.50258,434.90292 C 411.13954,437.45074 408.66122,437.38356 406.46197,437.93338 C 402.93807,438.81435 402.14456,438.8465 402.92644,441.97399 C 403.73373,445.20316 401.46722,445.49552 399.3909,446.0146 C 397.36096,446.52208 399.80114,451.98068 400.40105,452.58059 C 402.80384,454.98337 404.18502,454.10404 402.92644,456.6212 C 402.4635,457.54706 396.01546,456.15615 395.85537,456.11612 C 394.28192,455.72276 391.7784,452.80586 390.8046,452.07551 C 388.65356,450.46223 387.8808,450.7736 386.76399,448.53998 C 385.75072,446.51344 386.00584,443.99321 385.24877,442.47906 C 383.72502,439.43157 382.05022,439.28132 381.20816,435.91307 C 380.60951,433.51849 380.198,430.74494 380.198,428.33693 C 380.198,425.29564 378.7351,424.28045 378.68277,421.26586 C 378.63044,418.25127 381.69582,417.74468 381.20816,414.69987 C 380.7205,411.65506 379.43034,409.89159 377.67262,408.13388 C 375.55678,406.01804 376.07973,403.66585 377.67262,402.07296 C 379.41244,400.33314 377.69224,396.05128 377.16755,395.00189 C 376.61861,393.90403 371.65508,391.24635 370.60155,390.45621 C 368.72977,389.05237 367.36913,387.02181 366.56094,385.40544 C 365.73599,383.75554 363.97869,381.81304 362.52033,380.35468 C 360.78242,378.61677 359.26979,377.38913 358.47972,375.80899 C 357.55271,373.95496 356.91749,371.67439 355.95434,369.74808 C 354.86446,367.56831 352.62095,367.42484 350.90358,365.70747 C 349.67042,364.47432 350.21092,359.90638 349.89343,358.6364 C 349.14866,355.65732 350.2549,353.72925 351.40866,352.57549 C 353.03532,350.94882 353.9577,349.4977 354.94419,347.52472 C 355.92485,345.56341 356.41406,344.0799 357.46957,341.96888 C 358.54717,339.81368 359.48988,337.70306 359.48988,335.40289 C 359.48988,331.96758 357.6525,333.10416 356.96449,330.35213 C 356.33674,327.84111 358.79772,328.37859 361.0051,327.82675 C 363.44521,327.21672 364.52368,325.8347 366.05587,323.28106 z"
       id="path2396"
       sodipodi:nodetypes="cssssssssssssssssssssssssssssssssssssssssszzssssssssssssssssc" />
    <path
       style="opacity:1;fill:#93aca7;fill-rule:evenodd;stroke:none;stroke-width:1px;stroke-linecap:butt;stroke-linejoin:miter;stroke-opacity:1"
       d="M 396.90365,235.29837 C 396.45252,235.28954 396.07014,235.43413 395.84115,235.89212 C 394.96877,237.63688 393.38266,238.88187 391.8099,240.45462 C 390.92124,241.34328 389.86856,244.08838 388.27865,244.48587 C 388.23008,244.49802 382.69913,246.14766 383.7474,241.95462 C 383.88019,241.42344 384.5123,239.25123 384.3724,237.76712 C 359.12604,247.3999 338.08252,265.7979 324.90365,289.32962 C 324.96042,289.68695 325.05411,290.05644 325.15365,290.45462 C 325.861,293.28401 325.87581,294.7637 324.1224,296.51712 C 322.36443,298.27509 322.39215,298.46935 321.6224,301.54837 C 321.04437,303.86047 321.08859,305.54322 322.1224,307.61087 C 322.53065,308.42736 324.67305,312.17336 325.65365,312.17337 C 328.4291,312.17337 330.12563,312.12811 332.21615,313.17337 C 333.57369,313.85214 335.53959,316.64485 337.77865,317.20462 C 339.95655,317.74909 341.14473,318.10649 341.8099,320.76712 C 342.47872,323.44242 343.88481,324.34203 345.84115,326.29837 C 347.10831,327.56554 349.1458,331.2398 351.90365,329.86087 C 354.54796,328.53872 354.5103,329.32962 357.96615,329.32962 C 361.32837,329.32962 362.50048,328.20541 358.9974,327.32962 C 356.77065,326.77294 354.80908,326.39973 352.40365,325.79837 C 348.5016,324.82286 349.23549,324.43975 349.90365,321.76712 C 350.43704,319.63355 351.32382,318.52398 351.90365,316.20462 C 352.25035,314.81785 353.22885,311.22342 350.90365,310.64212 C 350.62807,310.57322 343.99417,308.49884 344.34115,307.11087 C 344.97993,304.55576 347.38729,305.02005 347.8724,303.07962 C 348.3641,301.11284 349.33918,296.52542 347.3724,297.01712 C 345.1256,297.57882 344.29551,298.63962 343.34115,300.54837 C 342.79587,301.63892 340.55608,304.57961 339.27865,304.57962 C 337.39827,304.57962 333.75449,303.02007 334.2474,301.04837 C 334.56232,299.78869 334.94637,295.63637 336.2474,294.98587 C 337.62823,294.29545 339.77866,293.15127 339.77865,290.95462 C 339.77865,288.41008 340.51916,287.1131 341.8099,285.39212 C 342.86014,283.9918 344.26335,282.38813 346.3724,281.86087 C 348.44348,281.3431 350.28394,280.36087 352.9349,280.36087 C 355.56663,280.36087 358.46614,279.59474 358.46615,282.36087 C 358.46615,285.24309 357.45787,286.37066 358.9974,288.42337 C 359.53028,289.13388 365.58581,291.50644 365.0599,290.45462 C 363.89638,288.12758 363.52866,286.56286 363.52865,283.89212 C 363.52865,281.64594 360.01961,278.33415 362.02865,277.32962 C 363.69926,276.49432 364.55135,274.42551 367.0599,273.79837 C 369.00949,273.31097 370.48045,271.76713 372.6224,271.76712 C 374.28698,271.76712 378.15725,271.12529 377.6849,269.23587 C 377.1393,267.05348 376.17463,265.18107 378.1849,263.67337 C 380.35555,262.04539 381.33814,261.34674 383.7474,260.14212 C 385.49915,259.26624 387.75415,258.63536 389.27865,257.11087 C 389.49862,256.89089 392.59716,252.57963 393.34115,252.57962 C 395.88461,252.57962 397.35742,254.85273 399.90365,253.57962 C 402.00105,252.53092 408.7411,250.47963 406.46615,251.04837 C 405.9544,250.84366 399.36422,248.596 399.40365,248.51712 C 400.33962,246.64519 399.54432,244.98586 402.9349,244.98587 C 405.21858,244.98587 408.29492,244.43524 410.4974,244.98587 C 412.01839,245.36612 416.17494,246.37081 417.5599,244.98587 C 418.5844,243.96137 419.92925,240.92196 416.0599,239.95462 C 414.54401,239.57565 410.79145,239.8204 408.9974,238.92337 C 406.31008,237.57972 405.20735,236.92337 401.90365,236.92337 C 400.36752,236.92337 398.25705,235.32486 396.90365,235.29837 z"
       id="path2398" />
    <path
       style="opacity:1;fill:#93aca7;fill-rule:evenodd;stroke:none;stroke-width:1px;stroke-linecap:butt;stroke-linejoin:miter;stroke-opacity:1"
       d="M 358.9848,292.47141 C 357.96071,294.51958 354.46698,293.46763 352.41881,294.49171 C 349.44487,295.97869 350.24796,298.02725 353.42896,298.02725 C 355.95434,298.02725 358.47972,298.02725 361.0051,298.02725 C 363.88429,298.02725 364.90577,300.73519 366.56094,301.56278 C 368.13309,302.34886 370.36881,301.29045 371.61171,300.04755 C 372.9427,298.71656 368.24453,298.36397 366.56094,297.52217 C 363.24074,295.86207 362.48614,293.87195 358.9848,292.47141 z"
       id="path2400" />
    <path
       style="opacity:1;fill:#93aca7;fill-rule:evenodd;stroke:none;stroke-width:1px;stroke-linecap:butt;stroke-linejoin:miter;stroke-opacity:1"
       d="M 380.198,301.56278 C 378.87152,300.89954 375.7656,300.04755 372.62186,300.04755 C 369.94111,300.04755 369.87274,302.20853 371.61171,303.07801 C 373.86308,304.2037 378.53754,302.55906 380.198,301.56278 z"
       id="path2402" />
    <path
       style="opacity:1;fill:#93aca7;fill-rule:evenodd;stroke:none;stroke-width:1px;stroke-linecap:butt;stroke-linejoin:miter;stroke-opacity:1"
       d="M 365.04571,304.08816 C 367.89628,303.37552 357.3024,302.19502 362.52033,306.10847 C 365.0515,308.00684 366.50808,307.74408 365.04571,304.08816 z"
       id="path2406" />
    <path
       style="opacity:1;fill:#93aca7;fill-rule:evenodd;stroke:none;stroke-width:1px;stroke-linecap:butt;stroke-linejoin:miter;stroke-opacity:1"
       d="M 418.14186,229.65255 C 418.86457,230.11567 423.76831,234.20198 426.15994,235.39779 C 427.84772,236.24168 429.67473,237.40772 431.71578,238.42825 C 434.9775,240.05911 435.49675,238.9049 434.74624,235.90287 C 433.82023,232.19884 436.07656,233.28503 438.28177,234.38764 C 439.4607,234.9771 440.02519,230.522 439.29193,230.47329"
       id="path2408"
       sodipodi:nodetypes="cssssz" />
    <path
       style="opacity:1;fill:#93aca7;fill-rule:evenodd;stroke:none;stroke-width:1px;stroke-linecap:butt;stroke-linejoin:miter;stroke-opacity:1"
       d="M 497.94484,257.4923 C 498.20048,257.65442 495.45559,261.8051 499.62131,263.30933 C 502.86906,264.48209 502.39096,267.79882 501.57046,269.09256 C 500.9964,269.9977 496.6774,266.67447 496.24804,266.51944 C 494.03295,265.71958 498.66914,271.22629 498.80208,271.34893 C 500.52638,272.9394 500.46854,274.31775 500.80243,276.62967 C 501.03442,278.23591 503.81994,279.47561 505.57117,279.65405 C 508.42134,279.94448 511.07891,278.77542 511.252,278.70985 C 513.5766,277.82929 508.75561,274.27954 508.4003,271.81927 C 508.16168,270.16709 510.04064,270.69438 510.19376,269.19168"
       id="path2410"
       sodipodi:nodetypes="cssssssssc" />
    <path
       style="opacity:1;fill:#93aca7;fill-rule:evenodd;stroke:none;stroke-width:1px;stroke-linecap:butt;stroke-linejoin:miter;stroke-opacity:1"
       d="M 509.04673,282.71348 C 507.72295,282.54518 506.4582,282.81551 504.51429,283.72799 C 504.17394,281.37147 503.59616,288.81888 504.82427,290.85865 C 506.23046,293.19417 502.84481,294.32496 501.84355,295.14104 C 500.88881,295.91922 499.85895,299.52278 499.25887,300.46898 C 498.09334,302.30675 499.39968,306.42827 499.56885,307.59963 C 499.87177,309.69703 501.65938,311.28376 502.62257,312.46552 C 504.00988,314.16764 503.14296,317.223 502.89829,319.6241 C 502.65718,321.99028 501.74752,323.99577 500.79144,325.5033 C 499.36514,327.75225 500.98716,330.8499 501.66914,331.68663 C 503.1596,333.51533 504.3286,333.83034 505.81907,335.65904 C 507.50312,337.7252 508.97452,339.32045 509.29991,341.57362 C 509.66784,344.12125 510.31883,345.65678 511.75166,347.41475 C 513.0207,348.97177 515.06799,349.53456 516.50039,350.44301 C 518.55897,351.74856 521.93412,350.2862 523.13046,350.11341 C 525.08476,349.83117 526.35684,348.17392 527.97674,347.5603 C 528.16745,347.48806 529.86047,353.16441 529.93106,353.35075 C 530.63122,355.19906 530.65172,357.81759 531.30935,359.55368 C 532.32938,362.24646 532.51186,362.8576 532.21813,365.74018 C 531.93107,368.55744 529.91931,368.58768 531.10613,371.72076 C 531.94079,373.92414 532.01188,376.45454 532.37671,378.9807 C 532.68945,381.14613 529.91241,382.99338 529.27501,384.75855 C 528.35351,387.31046 527.51511,388.51648 526.58896,391.08132 C 526.02618,392.6399 524.73224,395.26142 524.00428,396.40925 C 522.78296,398.33492 521.7985,399.44364 520.42792,401.60472 C 518.95951,403.92004 519.93479,405.71255 517.82365,407.43324 C 516.42989,408.56921 515.95263,410.78481 515.23897,412.76116 C 514.37446,415.15534 512.88909,416.01066 512.15687,418.03841 C 511.36946,420.219 510.39107,421.18787 509.60328,423.3695 C 509.36969,424.0164 509.40912,424.30623 509.68845,424.38336 C 515.90128,417.37401 521.26704,409.57266 525.69008,401.13574 C 526.58993,398.64377 527.4517,396.30186 528.35315,393.80545 C 529.33881,391.07582 530.15247,389.46966 531.06196,386.95098 C 531.69937,385.18571 533.08311,382.82659 533.69732,381.12563 C 533.89795,380.57004 534.17548,379.99756 534.47175,379.38267 C 536.42635,372.63604 537.79082,365.61457 538.52871,358.3732 C 541.15397,332.6097 535.28502,307.97226 523.21742,287.29864 C 523.07785,289.0017 523.10396,290.87814 523.07014,291.21011 C 522.78911,293.96826 521.73077,294.67326 519.42462,291.84381 C 518.00698,290.10447 517.28818,288.66296 515.87348,286.92724 C 514.25234,284.93821 514.74819,284.56275 511.67287,283.45226 C 510.67984,283.09367 509.84099,282.81447 509.04673,282.71348 z"
       id="path2412" />
    <path
       sodipodi:type="arc"
       style="opacity:1;fill:none;fill-opacity:1;fill-rule:nonzero;stroke:#000000;stroke-width:0.70575404;stroke-linecap:round;stroke-linejoin:round;stroke-miterlimit:4;stroke-dasharray:none;stroke-dashoffset:0;stroke-opacity:1"
       id="path3202"
       sodipodi:cx="238.90108"
       sodipodi:cy="225.55232"
       sodipodi:rx="59.093925"
       sodipodi:ry="50.002552"
       d="M 297.995,225.55232 A 59.093925,50.002552 0 1 1 179.80715,225.55232 A 59.093925,50.002552 0 1 1 297.995,225.55232 z"
       transform="matrix(1.9401709,0,0,2.3282828,-38.86358,-179.09684)" />
    <path
       style="fill:none;fill-rule:evenodd;stroke:#000000;stroke-width:2.49999976;stroke-linecap:butt;stroke-linejoin:miter;marker-start:url(#Arrow2Mstart);stroke-miterlimit:4;stroke-dasharray:none;stroke-opacity:1"
       d="M 424.14026,153.3839 L 424.14026,229.95966"
       id="path3224" />
    <path
       sodipodi:type="arc"
       style="opacity:1;fill:none;fill-opacity:1;fill-rule:nonzero;stroke:#000000;stroke-width:1.5;stroke-linecap:round;stroke-linejoin:round;marker-start:url(#Arrow1Sstart);stroke-miterlimit:4;stroke-dasharray:none;stroke-dashoffset:0;stroke-opacity:1"
       id="path6623"
       sodipodi:cx="260.35715"
       sodipodi:cy="118.43361"
       sodipodi:rx="17.5"
       sodipodi:ry="3.9285715"
       d="M 267.47504,114.84468 A 17.5,3.9285715 0 1 1 254.45797,114.73498"
       sodipodi:start="5.131268"
       sodipodi:end="10.651744"
       sodipodi:open="true"
       transform="translate(163.42597,101.1689)" />
    <path
       style="fill:none;fill-rule:evenodd;stroke:#000000;stroke-width:2.49999976;stroke-linecap:butt;stroke-linejoin:miter;marker-start:url(#Arrow2Mstart);stroke-miterlimit:4;stroke-dasharray:none;stroke-opacity:1"
       d="M 537.01815,218.55364 L 501.66631,258.94277"
       id="path8214" />
    <path
       style="fill:none;fill-rule:evenodd;stroke:#000000;stroke-width:2;stroke-linecap:round;stroke-linejoin:miter;stroke-miterlimit:4;stroke-dasharray:6, 6;stroke-dashoffset:0;stroke-opacity:1"
       d="M 424.14026,229.24537 L 424.85454,346.38823 L 502.71168,257.81681"
       id="path8218"
       sodipodi:nodetypes="ccc" />
    <path
       style="fill:none;fill-rule:evenodd;stroke:#000000;stroke-width:1px;stroke-linecap:butt;stroke-linejoin:miter;stroke-opacity:1"
       d="M 425.14979,292.97649 C 440.95235,292.51774 448.81849,295.43185 459.60702,306.07257"
       id="path8220"
       sodipodi:nodetypes="cc" />
    <text
       xml:space="preserve"
       style="font-size:9.77196121px;font-style:normal;font-weight:normal;fill:#000000;fill-opacity:1;stroke:none;stroke-width:1px;stroke-linecap:butt;stroke-linejoin:miter;stroke-opacity:1;font-family:Bitstream Vera Sans"
       x="381.24808"
       y="352.87323"
       id="text8222"
       transform="scale(1.1252022,0.8887292)"><tspan
         sodipodi:role="line"
         id="tspan8224"
         x="381.24808"
         y="352.87323"
         style="font-size:26.05856514px;font-weight:normal;-inkscape-font-specification:Bitstream Vera Sans">α</tspan></text>
    <text
       xml:space="preserve"
       style="font-size:9.3132534px;font-style:normal;font-weight:normal;fill:#000000;fill-opacity:1;stroke:none;stroke-width:1px;stroke-linecap:butt;stroke-linejoin:miter;stroke-opacity:1;font-family:Bitstream Vera Sans"
       x="400.98645"
       y="217.52174"
       id="text8226"
       transform="scale(1.0723838,0.932502)"><tspan
         sodipodi:role="line"
         id="tspan8228"
         x="400.98645"
         y="217.52174"
         style="font-size:24.83534241px;font-weight:normal;-inkscape-font-specification:Bitstream Vera Sans">ω</tspan></text>
    <text
       xml:space="preserve"
       style="font-size:9.3132534px;font-style:normal;font-weight:normal;fill:#000000;fill-opacity:1;stroke:none;stroke-width:1px;stroke-linecap:butt;stroke-linejoin:miter;stroke-opacity:1;font-family:Bitstream Vera Sans"
       x="482.61707"
       y="277.9866"
       id="text8230"
       transform="scale(1.0723838,0.932502)"><tspan
         sodipodi:role="line"
         id="tspan8232"
         x="482.61707"
         y="277.9866"
         style="font-size:24.83534241px;font-weight:normal;-inkscape-font-specification:Bitstream Vera Sans">ω</tspan></text>
    <text
       xml:space="preserve"
       style="font-size:6.97659349px;font-style:normal;font-weight:normal;fill:#000000;fill-opacity:1;stroke:none;stroke-width:1px;stroke-linecap:butt;stroke-linejoin:miter;stroke-opacity:1;font-family:Bitstream Vera Sans"
       x="451.9068"
       y="206.32735"
       id="text8234"><tspan
         sodipodi:role="line"
         id="tspan8236"
         x="451.9068"
         y="206.32735"
         style="font-weight:bold;-inkscape-font-specification:Bitstream Vera Sans Bold">Erde</tspan></text>
    <text
       xml:space="preserve"
       style="font-size:6.97659349px;font-style:normal;font-weight:normal;fill:#000000;fill-opacity:1;stroke:none;stroke-width:1px;stroke-linecap:butt;stroke-linejoin:miter;stroke-opacity:1;font-family:Bitstream Vera Sans"
       x="538.92322"
       y="261.71185"
       id="text8238"><tspan
         sodipodi:role="line"
         id="tspan8240"
         x="538.92322"
         y="261.71185"
         style="font-weight:bold;-inkscape-font-specification:Bitstream Vera Sans Bold">Lokal</tspan></text>
  </g>
</svg>
